<svg width="859" height="858" viewBox="0 0 859 858" fill="none" xmlns="http://www.w3.org/2000/svg">
<circle r="419" transform="matrix(1 0 0 -1 425.965 420)" stroke="#0F7BCF" stroke-width="2"/>
<path d="M552.874 542.293C472.694 625.525 386.354 687.565 311.609 720.606C274.234 737.128 239.806 746.378 210.526 747.433C181.25 748.488 157.208 741.352 140.449 725.207C123.689 709.062 115.66 685.304 115.621 656.009C115.582 626.709 123.54 591.96 138.655 553.995C168.883 478.068 227.656 389.471 307.835 306.24C388.015 223.008 474.356 160.968 549.101 127.926C586.475 111.405 620.903 102.155 650.183 101.099C679.459 100.044 703.501 107.18 720.261 123.326C737.02 139.471 745.049 163.229 745.088 192.524C745.127 221.823 737.169 256.572 722.054 294.538C691.827 370.465 633.054 459.062 552.874 542.293Z" stroke="#0F7BCF" stroke-width="2"/>
<path d="M567.911 556.332C488.018 639.266 401.937 701.037 327.38 733.884C290.099 750.308 255.748 759.479 226.52 760.48C197.297 761.481 173.283 754.316 156.522 738.17C139.762 722.024 131.704 698.294 131.614 669.054C131.523 639.809 139.405 605.139 154.426 567.271C184.466 491.54 242.979 403.213 322.872 320.278C402.765 237.344 488.846 175.573 563.403 142.727C600.684 126.302 635.035 117.131 664.263 116.13C693.486 115.129 717.5 122.295 734.261 138.441C751.021 154.587 759.079 178.316 759.17 207.557C759.26 236.801 751.378 271.471 736.357 309.339C706.318 385.071 647.804 473.398 567.911 556.332Z" stroke="#0F7BCF" stroke-width="2"/>
<path d="M293.261 523.075C296.008 526.017 298.782 528.954 301.582 531.884L302.308 531.196C303.706 532.66 305.112 534.122 306.524 535.582C307.936 537.043 309.35 538.497 310.766 539.944L310.048 540.641C312.883 543.539 315.724 546.41 318.572 549.255L319.282 548.55C322.153 551.419 325.031 554.26 327.916 557.074L327.215 557.787C330.112 560.614 333.015 563.413 335.923 566.184L336.616 565.463C339.56 568.268 342.509 571.044 345.462 573.792L344.779 574.521C347.747 577.282 350.719 580.014 353.696 582.716L354.37 581.978C357.378 584.709 360.389 587.409 363.402 590.078L362.737 590.824C365.779 593.518 368.823 596.181 371.87 598.812L372.526 598.058C375.593 600.707 378.662 603.323 381.732 605.907L381.085 606.67C384.203 609.294 387.321 611.884 390.44 614.441L391.076 613.67C394.21 616.239 397.345 618.774 400.478 621.275L399.852 622.054C403.037 624.595 406.22 627.1 409.402 629.568L410.017 628.781C413.23 631.274 416.441 633.73 419.649 636.149L419.045 636.945C422.284 639.387 425.52 641.791 428.753 644.156L429.346 643.352C432.64 645.762 435.93 648.133 439.215 650.462L438.634 651.276C441.955 653.631 445.27 655.945 448.579 658.217L449.147 657.395C452.496 659.694 455.837 661.95 459.171 664.162L458.615 664.993C462.024 667.255 465.424 669.472 468.814 671.642L469.356 670.802C472.785 672.997 476.204 675.145 479.612 677.244L479.085 678.093C482.55 680.229 486.003 682.314 489.444 684.35L489.955 683.491C493.478 685.576 496.988 687.608 500.481 689.586L499.987 690.454C503.545 692.469 507.088 694.429 510.613 696.333L511.09 695.455C514.674 697.391 518.239 699.268 521.784 701.087L521.326 701.974C524.97 703.843 528.593 705.651 532.193 707.395L532.631 706.498C536.321 708.286 539.986 710.008 543.626 711.663L543.21 712.571C546.945 714.27 550.653 715.898 554.332 717.456L554.723 716.537C558.491 718.132 562.227 719.652 565.93 721.096L565.565 722.025C569.385 723.515 573.17 724.924 576.917 726.252L577.252 725.311C581.121 726.682 584.949 727.965 588.733 729.16L588.431 730.111C592.369 731.354 596.26 732.502 600.102 733.553L600.367 732.59C604.339 733.676 608.257 734.659 612.117 735.535L611.895 736.509C615.928 737.424 619.9 738.226 623.806 738.91L623.98 737.927C628.041 738.639 632.029 739.225 635.94 739.682L635.823 740.673C639.94 741.154 643.974 741.493 647.919 741.689L647.969 740.692C652.086 740.897 656.103 740.944 660.016 740.831L660.045 741.828C664.199 741.708 668.237 741.409 672.153 740.929L672.03 739.938C676.127 739.435 680.086 738.731 683.899 737.824L684.132 738.795C688.161 737.836 692.031 736.652 695.734 735.238L695.376 734.306C699.168 732.858 702.78 731.168 706.201 729.231L706.696 730.099C710.24 728.092 713.585 725.824 716.721 723.288L716.089 722.513C717.638 721.26 719.135 719.941 720.579 718.555C722.023 717.169 723.402 715.728 724.716 714.232L725.47 714.89C728.131 711.862 730.531 708.616 732.675 705.163L731.823 704.637C733.894 701.303 735.724 697.77 737.318 694.048L738.239 694.44C739.795 690.805 741.127 686.996 742.239 683.021L741.274 682.752C742.326 678.99 743.18 675.074 743.838 671.013L744.827 671.173C745.455 667.291 745.906 663.281 746.181 659.15L745.181 659.084C745.441 655.192 745.544 651.19 745.493 647.084L746.494 647.071C746.445 643.136 746.255 639.107 745.927 634.99L744.928 635.069C744.616 631.157 744.178 627.165 743.615 623.095L744.608 622.958C744.067 619.044 743.412 615.059 742.644 611.009L741.659 611.194C740.924 607.317 740.085 603.38 739.144 599.384L740.119 599.156C739.209 595.292 738.203 591.374 737.104 587.407L736.138 587.672C735.081 583.86 733.937 580.001 732.707 576.097L733.663 575.798C732.471 572.018 731.199 568.197 729.848 564.337L728.902 564.666C727.592 560.925 726.207 557.149 724.748 553.338L725.684 552.982C724.26 549.261 722.765 545.508 721.201 541.726L720.275 542.106C718.751 538.42 717.16 534.706 715.505 530.966L716.421 530.563C714.806 526.913 713.129 523.238 711.39 519.54L710.483 519.964C708.791 516.366 707.041 512.746 705.234 509.105L706.132 508.663C704.354 505.082 702.521 501.481 700.633 497.863L699.744 498.323C697.89 494.77 695.984 491.2 694.024 487.614L694.904 487.137C692.991 483.636 691.029 480.119 689.017 476.589L688.146 477.082C686.167 473.611 684.141 470.126 682.067 466.63L682.93 466.122C680.88 462.665 678.784 459.197 676.642 455.719L675.789 456.241C673.694 452.839 671.557 449.428 669.376 446.008L670.221 445.473C668.066 442.093 665.869 438.706 663.631 435.311L662.794 435.859C660.58 432.502 658.325 429.137 656.031 425.767L656.86 425.207C654.608 421.9 652.318 418.588 649.989 415.271L649.168 415.843C646.863 412.559 644.519 409.27 642.139 405.978L642.952 405.394C640.595 402.134 638.201 398.871 635.772 395.605L634.967 396.2C632.576 392.986 630.151 389.771 627.691 386.554L628.488 385.949C626.04 382.748 623.559 379.547 621.043 376.345L620.255 376.96C617.778 373.807 615.268 370.654 612.726 367.501L613.507 366.876C610.982 363.744 608.425 360.613 605.837 357.484L605.064 358.118C602.499 355.018 599.904 351.919 597.277 348.823L598.043 348.178C595.444 345.114 592.815 342.053 590.157 338.994L589.4 339.648C586.754 336.604 584.08 333.564 581.376 330.528L582.126 329.865C579.455 326.866 576.756 323.871 574.029 320.881L573.288 321.552C570.573 318.575 567.831 315.603 565.062 312.637L565.795 311.957C563.048 309.015 560.275 306.078 557.474 303.148L556.749 303.837C555.35 302.373 553.945 300.911 552.532 299.45C551.12 297.99 549.706 296.535 548.291 295.088L549.008 294.391C546.174 291.494 543.332 288.622 540.484 285.777L539.775 286.482C536.903 283.614 534.025 280.773 531.141 277.959L531.842 277.246C528.944 274.419 526.041 271.62 523.133 268.849L522.441 269.57C519.497 266.765 516.548 263.988 513.594 261.241L514.278 260.511C511.309 257.75 508.337 255.018 505.361 252.316L504.686 253.054C501.679 250.324 498.668 247.624 495.654 244.954L496.32 244.208C493.278 241.514 490.233 238.851 487.186 236.22L486.53 236.974C483.463 234.326 480.394 231.709 477.325 229.125L477.971 228.363C474.854 225.739 471.735 223.148 468.617 220.592L467.98 221.363C464.846 218.793 461.712 216.258 458.578 213.758L459.204 212.979C456.02 210.438 452.836 207.933 449.655 205.464L449.039 206.252C445.826 203.758 442.615 201.302 439.407 198.884L440.012 198.088C436.772 195.646 433.536 193.242 430.304 190.876L429.711 191.681C426.416 189.27 423.126 186.9 419.842 184.57L420.423 183.757C417.102 181.401 413.786 179.087 410.477 176.815L409.909 177.637C406.56 175.338 403.219 173.082 399.886 170.87L400.441 170.039C397.032 167.777 393.632 165.561 390.242 163.391L389.701 164.231C386.271 162.035 382.852 159.888 379.445 157.788L379.972 156.939C376.506 154.804 373.053 152.718 369.613 150.683L369.101 151.541C365.578 149.457 362.069 147.425 358.575 145.446L359.07 144.579C355.511 142.564 351.969 140.604 348.443 138.7L347.966 139.577C344.383 137.642 340.817 135.764 337.272 133.946L337.73 133.058C334.087 131.189 330.464 129.382 326.864 127.637L326.425 128.535C322.736 126.747 319.07 125.024 315.431 123.369L315.847 122.461C312.111 120.763 308.403 119.134 304.725 117.577L304.333 118.496C300.566 116.901 296.829 115.381 293.127 113.937L293.492 113.007C289.671 111.518 285.887 110.108 282.139 108.781L281.804 109.721C277.935 108.351 274.107 107.067 270.323 105.873L270.626 104.921C266.688 103.678 262.796 102.531 258.955 101.48L258.69 102.442C254.717 101.356 250.799 100.374 246.939 99.4972L247.162 98.524C243.128 97.6081 239.156 96.8068 235.25 96.122L235.077 97.1051C231.016 96.3932 227.028 95.8078 223.117 95.3509L223.233 94.3595C219.116 93.8786 215.082 93.539 211.137 93.3432L211.088 94.3401C206.971 94.1357 202.953 94.0889 199.041 94.2019L199.012 93.2041C194.858 93.3241 190.82 93.623 186.903 94.1039L187.026 95.0946C182.929 95.5978 178.97 96.3015 175.157 97.2087L174.924 96.2378C170.896 97.1962 167.025 98.3803 163.322 99.7942L163.681 100.726C159.888 102.174 156.277 103.865 152.855 105.802L152.36 104.934C148.816 106.94 145.471 109.209 142.336 111.745L142.967 112.52C141.418 113.773 139.921 115.092 138.477 116.478C137.033 117.863 135.654 119.305 134.34 120.8L133.586 120.143C130.926 123.17 128.526 126.416 126.381 129.87L127.233 130.395C125.163 133.73 123.332 137.263 121.739 140.984L120.817 140.593C119.261 144.227 117.929 148.037 116.817 152.012L117.782 152.28C116.73 156.043 115.877 159.958 115.219 164.019L114.23 163.86C113.601 167.741 113.151 171.751 112.875 175.882L113.875 175.949C113.616 179.84 113.512 183.842 113.564 187.949L112.562 187.961C112.611 191.897 112.801 195.925 113.13 200.043L114.128 199.964C114.441 203.875 114.879 207.868 115.441 211.938L114.449 212.074C114.99 215.989 115.645 219.973 116.413 224.024L117.397 223.839C118.132 227.715 118.971 231.653 119.912 235.649L118.937 235.877C119.847 239.741 120.853 243.658 121.953 247.626L122.918 247.36C123.975 251.173 125.119 255.032 126.349 258.935L125.394 259.234C126.585 263.015 127.857 266.836 129.209 270.695L130.154 270.366C131.464 274.107 132.849 277.884 134.308 281.695L133.372 282.051C134.797 285.771 136.291 289.524 137.855 293.307L138.782 292.927C140.306 296.612 141.896 300.326 143.552 304.067L142.635 304.47C144.25 308.119 145.928 311.794 147.666 315.492L148.574 315.069C150.265 318.667 152.015 322.287 153.822 325.927L152.924 326.37C154.702 329.951 156.535 333.551 158.424 337.17L159.312 336.71C161.166 340.262 163.073 343.832 165.032 347.418L164.152 347.895C166.065 351.397 168.028 354.913 170.04 358.443L170.911 357.95C172.889 361.422 174.916 364.906 176.989 368.403L176.127 368.91C178.177 372.367 180.273 375.835 182.414 379.314L183.268 378.792C185.362 382.193 187.5 385.605 189.68 389.024L188.835 389.56C190.99 392.939 193.187 396.327 195.425 399.722L196.263 399.174C198.477 402.531 200.731 405.895 203.026 409.265L202.197 409.826C204.448 413.132 206.739 416.445 209.067 419.761L209.888 419.189C212.194 422.474 214.537 425.763 216.917 429.055L216.105 429.638C218.462 432.898 220.855 436.162 223.285 439.427L224.089 438.833C226.48 442.046 228.905 445.262 231.365 448.479L230.569 449.084C233.016 452.284 235.498 455.486 238.013 458.688L238.802 458.072C241.279 461.226 243.788 464.379 246.33 467.532L245.549 468.157C248.074 471.288 250.631 474.419 253.22 477.549L253.993 476.914C256.557 480.015 259.153 483.113 261.779 486.21L261.014 486.854C263.613 489.918 266.241 492.98 268.899 496.038L269.657 495.385C272.302 498.428 274.977 501.469 277.68 504.505L276.931 505.167C279.601 508.166 282.3 511.161 285.027 514.152L285.769 513.481C288.483 516.457 291.225 519.429 293.995 522.396L293.261 523.075Z" stroke="#0F7BCF" stroke-width="2" stroke-dasharray="12 12"/>
<path d="M278.202 537.155C280.941 540.089 283.706 543.017 286.498 545.939L287.224 545.251C288.619 546.71 290.02 548.169 291.428 549.625C292.836 551.081 294.246 552.531 295.658 553.974L294.941 554.671C297.767 557.56 300.601 560.423 303.441 563.26L304.15 562.555C307.014 565.415 309.884 568.248 312.76 571.054L312.06 571.767C314.949 574.585 317.844 577.376 320.744 580.139L321.437 579.417C324.373 582.214 327.314 584.982 330.26 587.721L329.577 588.451C332.537 591.204 335.502 593.927 338.471 596.62L339.145 595.882C342.145 598.604 345.148 601.295 348.154 603.956L347.488 604.702C350.523 607.388 353.56 610.042 356.599 612.665L357.255 611.91C360.314 614.55 363.375 617.158 366.437 619.733L365.791 620.496C368.901 623.111 372.012 625.693 375.123 628.24L375.759 627.469C378.886 630.03 382.013 632.556 385.139 635.048L384.513 635.828C387.69 638.359 390.865 640.855 394.039 643.315L394.654 642.527C397.859 645.011 401.063 647.458 404.264 649.868L403.66 650.664C406.892 653.097 410.12 655.492 413.345 657.848L413.937 657.043C417.224 659.444 420.507 661.806 423.784 664.126L423.204 664.94C426.517 667.286 429.826 669.591 433.128 671.854L433.695 671.032C437.036 673.321 440.369 675.567 443.694 677.769L443.14 678.601C446.541 680.853 449.934 683.06 453.317 685.221L453.858 684.381C457.28 686.566 460.692 688.705 464.092 690.795L463.566 691.645C467.023 693.769 470.468 695.845 473.9 697.87L474.411 697.011C477.927 699.086 481.429 701.108 484.915 703.077L484.422 703.945C487.973 705.95 491.508 707.9 495.026 709.794L495.503 708.916C499.079 710.842 502.637 712.709 506.175 714.518L505.718 715.406C509.353 717.264 512.967 719.061 516.558 720.795L516.995 719.896C520.677 721.674 524.336 723.386 527.968 725.03L527.553 725.939C531.281 727.627 534.981 729.245 538.653 730.792L539.043 729.873C542.803 731.457 546.531 732.966 550.227 734.399L549.863 735.33C553.676 736.808 557.453 738.207 561.192 739.523L561.526 738.582C565.384 739.941 569.202 741.212 572.976 742.395L572.675 743.347C576.605 744.579 580.488 745.715 584.321 746.754L584.584 745.791C588.547 746.866 592.456 747.837 596.308 748.702L596.088 749.676C600.112 750.58 604.074 751.369 607.971 752.042L608.142 751.059C612.193 751.759 616.171 752.332 620.073 752.778L619.959 753.77C624.065 754.239 628.088 754.567 632.023 754.751L632.07 753.754C636.175 753.947 640.181 753.983 644.082 753.859L644.114 754.857C648.256 754.726 652.284 754.416 656.19 753.926L656.065 752.935C660.147 752.422 664.092 751.71 667.892 750.795L668.128 751.766C672.141 750.8 675.997 749.61 679.688 748.191L679.327 747.26C683.104 745.808 686.702 744.116 690.112 742.179L690.609 743.046C694.139 741.04 697.472 738.774 700.598 736.243L699.966 735.469C701.51 734.219 703.003 732.903 704.443 731.521C705.882 730.139 707.258 728.702 708.569 727.211L709.323 727.869C711.978 724.851 714.375 721.617 716.518 718.177L715.667 717.65C717.737 714.327 719.569 710.808 721.166 707.101L722.086 707.495C723.647 703.873 724.984 700.078 726.103 696.118L725.138 695.848C726.197 692.098 727.059 688.197 727.726 684.151L728.715 684.313C729.353 680.442 729.813 676.443 730.1 672.323L729.1 672.254C729.37 668.374 729.483 664.384 729.443 660.29L730.445 660.28C730.407 656.355 730.228 652.337 729.911 648.231L728.912 648.308C728.611 644.407 728.185 640.424 727.634 636.365L728.627 636.231C728.097 632.326 727.453 628.351 726.697 624.31L725.712 624.493C724.988 620.626 724.16 616.697 723.23 612.711L724.206 612.485C723.307 608.629 722.312 604.721 721.224 600.762L720.258 601.026C719.212 597.224 718.08 593.376 716.861 589.483L717.818 589.186C716.637 585.413 715.375 581.6 714.035 577.749L713.088 578.076C711.789 574.343 710.414 570.574 708.966 566.771L709.902 566.417C708.488 562.704 707.004 558.959 705.45 555.184L704.523 555.563C703.009 551.885 701.429 548.179 699.783 544.446L700.701 544.045C699.096 540.404 697.429 536.739 695.701 533.05L694.793 533.472C693.112 529.882 691.371 526.269 689.574 522.636L690.472 522.195C688.704 518.621 686.88 515.028 685.002 511.417L684.113 511.876C682.268 508.331 680.371 504.769 678.422 501.191L679.302 500.715C677.399 497.222 675.446 493.714 673.444 490.192L672.572 490.684C670.603 487.22 668.586 483.743 666.522 480.254L667.385 479.748C665.344 476.298 663.257 472.838 661.125 469.367L660.27 469.888C658.186 466.495 656.058 463.092 653.886 459.68L654.732 459.146C652.586 455.774 650.398 452.394 648.168 449.006L647.331 449.554C645.126 446.204 642.88 442.847 640.594 439.485L641.424 438.925C639.181 435.626 636.9 432.322 634.581 429.014L633.759 429.585C631.462 426.309 629.128 423.027 626.756 419.743L627.569 419.16C625.221 415.908 622.836 412.653 620.416 409.396L619.611 409.989C617.229 406.784 614.811 403.576 612.36 400.367L613.157 399.762C610.718 396.569 608.245 393.375 605.738 390.181L604.949 390.796C602.481 387.651 599.98 384.506 597.446 381.361L598.228 380.737C595.711 377.613 593.162 374.489 590.582 371.368L589.809 372.003C587.253 368.91 584.665 365.819 582.048 362.731L582.813 362.087C580.223 359.031 577.602 355.977 574.952 352.927L574.195 353.58C571.558 350.544 568.891 347.512 566.196 344.484L566.945 343.822C564.283 340.831 561.592 337.844 558.873 334.862L558.132 335.533C555.425 332.564 552.691 329.601 549.93 326.642L550.663 325.963C547.925 323.029 545.159 320.1 542.367 317.178L541.641 317.867C540.246 316.407 538.845 314.949 537.437 313.493C536.029 312.036 534.619 310.586 533.207 309.143L533.925 308.446C531.098 305.557 528.265 302.694 525.424 299.857L524.715 300.562C521.851 297.702 518.981 294.869 516.105 292.064L516.806 291.351C513.916 288.532 511.021 285.742 508.121 282.979L507.428 283.7C504.492 280.903 501.551 278.135 498.605 275.396L499.288 274.667C496.328 271.914 493.363 269.191 490.395 266.497L489.72 267.235C486.721 264.513 483.717 261.822 480.711 259.162L481.377 258.415C478.342 255.73 475.305 253.075 472.266 250.453L471.61 251.207C468.551 248.567 465.49 245.96 462.428 243.385L463.074 242.622C459.964 240.007 456.854 237.425 453.742 234.877L453.106 235.648C449.98 233.087 446.852 230.561 443.726 228.069L444.352 227.29C441.176 224.758 438 222.262 434.826 219.803L434.211 220.591C431.006 218.107 427.802 215.659 424.601 213.25L425.205 212.453C421.974 210.021 418.745 207.626 415.52 205.27L414.928 206.075C411.641 203.673 408.358 201.312 405.081 198.991L405.661 198.178C402.348 195.831 399.039 193.526 395.738 191.263L395.17 192.086C391.83 189.797 388.496 187.55 385.171 185.348L385.725 184.517C382.324 182.264 378.931 180.057 375.548 177.896L375.007 178.737C371.585 176.551 368.173 174.413 364.773 172.322L365.299 171.473C361.842 169.348 358.397 167.273 354.965 165.247L354.454 166.106C350.938 164.031 347.436 162.009 343.95 160.041L344.444 159.172C340.892 157.167 337.357 155.217 333.839 153.323L333.363 154.201C329.786 152.276 326.228 150.408 322.69 148.599L323.147 147.711C319.512 145.853 315.898 144.057 312.307 142.323L311.87 143.221C308.188 141.443 304.53 139.732 300.897 138.087L301.312 137.178C297.584 135.49 293.884 133.872 290.212 132.325L289.822 133.245C286.062 131.661 282.334 130.151 278.638 128.718L279.002 127.788C275.189 126.309 271.412 124.911 267.673 123.594L267.339 124.535C263.481 123.177 259.663 121.905 255.889 120.723L256.19 119.77C252.26 118.539 248.377 117.403 244.544 116.363L244.281 117.326C240.318 116.252 236.409 115.281 232.557 114.416L232.777 113.442C228.753 112.538 224.791 111.748 220.894 111.075L220.723 112.059C216.672 111.359 212.694 110.785 208.792 110.339L208.906 109.348C204.8 108.879 200.777 108.551 196.843 108.366L196.796 109.363C192.691 109.171 188.684 109.135 184.783 109.258L184.751 108.261C180.609 108.392 176.581 108.701 172.675 109.192L172.801 110.182C168.718 110.695 164.773 111.408 160.973 112.322L160.737 111.352C156.724 112.318 152.868 113.508 149.178 114.926L149.538 115.857C145.761 117.309 142.163 119.002 138.753 120.939L138.256 120.072C134.726 122.077 131.393 124.343 128.267 126.874L128.899 127.649C127.355 128.899 125.862 130.215 124.422 131.597C122.983 132.979 121.607 134.416 120.296 135.906L119.542 135.248C116.887 138.266 114.49 141.501 112.347 144.941L113.198 145.467C111.128 148.79 109.296 152.31 107.699 156.017L106.779 155.623C105.219 159.244 103.881 163.039 102.763 166.999L103.727 167.27C102.668 171.019 101.806 174.921 101.139 178.967L100.15 178.805C99.5124 182.676 99.0517 186.674 98.7655 190.794L99.7649 190.863C99.4954 194.743 99.3816 198.733 99.4216 202.828L98.4199 202.838C98.4582 206.762 98.6368 210.78 98.9538 214.886L99.9527 214.81C100.254 218.711 100.681 222.693 101.231 226.753L100.239 226.886C100.768 230.792 101.412 234.767 102.169 238.807L103.153 238.624C103.877 242.492 104.705 246.42 105.635 250.406L104.659 250.632C105.558 254.488 106.553 258.397 107.641 262.355L108.608 262.091C109.653 265.893 110.785 269.742 112.004 273.634L111.048 273.931C112.228 277.704 113.49 281.517 114.831 285.368L115.777 285.041C117.077 288.774 118.451 292.543 119.899 296.346L118.963 296.7C120.377 300.413 121.861 304.158 123.415 307.933L124.342 307.554C125.856 311.232 127.436 314.938 129.082 318.671L128.164 319.073C129.769 322.713 131.436 326.379 133.164 330.067L134.072 329.645C135.754 333.236 137.494 336.848 139.291 340.481L138.393 340.923C140.161 344.496 141.985 348.089 143.863 351.7L144.753 351.241C146.597 354.786 148.494 358.349 150.444 361.927L149.563 362.403C151.466 365.896 153.419 369.404 155.421 372.925L156.293 372.433C158.262 375.897 160.279 379.374 162.343 382.863L161.48 383.37C163.521 386.819 165.608 390.28 167.74 393.751L168.595 393.23C170.679 396.623 172.808 400.026 174.979 403.437L174.133 403.972C176.279 407.344 178.467 410.724 180.697 414.111L181.534 413.564C183.739 416.913 185.985 420.27 188.271 423.633L187.442 424.192C189.684 427.491 191.965 430.795 194.284 434.104L195.106 433.532C197.403 436.809 199.737 440.09 202.109 443.375L201.296 443.958C203.644 447.21 206.029 450.465 208.449 453.722L209.254 453.128C211.637 456.334 214.054 459.542 216.505 462.751L215.708 463.355C218.147 466.548 220.62 469.742 223.127 472.936L223.916 472.321C226.384 475.466 228.885 478.612 231.419 481.756L230.638 482.381C233.154 485.505 235.703 488.628 238.283 491.749L239.056 491.115C241.613 494.207 244.2 497.298 246.817 500.386L246.052 501.03C248.643 504.087 251.263 507.14 253.913 510.191L254.671 509.538C257.308 512.573 259.974 515.605 262.669 518.633L261.92 519.295C264.582 522.286 267.273 525.273 269.992 528.256L270.733 527.584C273.44 530.553 276.174 533.517 278.935 536.475L278.202 537.155Z" stroke="#0F7BCF" stroke-width="2" stroke-dasharray="12 12"/>
<path d="M557.465 23.5L534.465 31L526.965 36V42.5H512.465L505.965 39.5L510.965 34.5L503.965 29.5L493.465 31L481.465 28H498.965L515.965 21L507.965 16L477.465 11.5L473.465 7.5H419.465L411.465 5.5L385.965 16L360.465 31H347.965L342.465 39.5H333.465H320.465L313.965 43.5H304.465L301.965 49L291.965 50.5L276.465 60.5H264.465L273.465 50.5L280.465 42.5L293.965 39.5L310.465 31L328.465 26L331.465 18.5H345.465L360.465 13.5L372.465 9L355.465 13.5H342.465L325.465 16L313.965 22L282.965 33.5L261.965 39.5L235.465 53.5L225.965 58.5L220.965 70.5L212.465 81L218.965 92.5L203.965 99.5V107.5L208.965 112H216.965L213.465 120L203.965 123.5L193.465 120H176.965L180.465 113.5H191.465L197.965 116V112V103.5L187.465 106L176.965 110V103.5L166.965 106L153.465 120L145.465 126L164.965 118L166.965 128L157.465 130.5L140.465 140L130.965 143L117.965 153.5L101.965 166.5L78.4648 195L66.4648 208.5L59.4648 217.5L41.4648 254V266V282.5L44.4648 292L54.4648 301.5L41.4648 307.5L39.4648 301.5L37.9648 289.5V273.5H33.4648L13.9648 363V384.5V398L18.4648 373L26.9648 359L33.4648 347.5L29.4648 368L37.9648 363L26.9648 376.5L24.4648 370.5L13.9648 420.5V446.5V468.5L21.4648 505.5L26.9648 523.5L37.9648 568.5L42.4648 570V578.5V589" stroke="#0F7BCF" stroke-width="2" stroke-linejoin="bevel"/>
<path d="M823.465 287L815.965 310L810.965 317.5L804.465 317.5L804.465 332L807.465 338.5L812.465 333.5L817.465 340.5L815.965 351L818.965 363L818.965 345.5L825.965 328.5L830.965 336.5L835.465 367L839.465 371L839.465 425L841.465 433L830.965 458.5L815.965 484L815.965 496.5L807.465 502L807.465 511L807.465 524L803.465 530.5L803.465 540L797.965 542.5L796.465 552.5L786.465 568L786.465 580L796.465 571L804.465 564L807.465 550.5L815.965 534L820.965 516L828.465 513L828.465 499L833.465 484L837.965 472L833.465 489L833.465 502L830.965 519L824.965 530.5L813.465 561.5L807.465 582.5L793.465 609L788.465 618.5L776.465 623.5L765.965 632L754.465 625.5L747.465 640.5L739.465 640.5L734.965 635.5L734.965 627.5L726.965 631L723.465 640.5L726.965 651L726.965 667.5L733.465 664L733.465 653L730.965 646.5L734.965 646.5L743.465 646.5L740.965 657L736.965 667.5L743.465 667.5L740.965 677.5L726.965 691L720.965 699L728.965 679.5L718.965 677.5L716.465 687L706.965 704L703.965 713.5L693.465 726.5L680.465 742.5L651.965 766L638.465 778L629.465 785L592.965 803L580.965 803L564.465 803L554.965 800L545.465 790L539.465 803L545.465 805L557.465 806.5L573.465 806.5L573.465 811L483.965 830.5L462.465 830.5L448.965 830.5L473.965 826L487.965 817.5L499.465 811L478.965 815L483.965 806.5L470.465 817.5L476.465 820L426.465 830.5L400.465 830.5L378.465 830.5L341.465 823L323.465 817.5L278.465 806.5L276.965 802L268.465 802L253.965 802" stroke="#0F7BCF" stroke-width="2" stroke-linejoin="bevel"/>
</svg>
