<svg width="58" height="58" viewBox="0 0 58 58" fill="none" xmlns="http://www.w3.org/2000/svg">
<path d="M30.6601 1.14299L32.7574 3.00563C33.6796 3.82459 34.9647 4.09775 36.1403 3.72467L38.8139 2.87614C40.0211 2.49304 41.324 3.07314 41.847 4.22657L43.0055 6.78125C43.5148 7.90448 44.5777 8.67674 45.8034 8.81405L48.591 9.12635C49.8496 9.26735 50.8039 10.3273 50.8126 11.5937L50.8318 14.3987C50.8402 15.632 51.4972 16.7698 52.561 17.3938L54.9806 18.8129C56.073 19.4536 56.5138 20.8101 56.0066 21.9705L54.8832 24.5408C54.3893 25.6709 54.5266 26.9776 55.2447 27.9803L56.8779 30.2609C57.6153 31.2905 57.4662 32.709 56.5309 33.5628L54.4592 35.454C53.5483 36.2855 53.1423 37.535 53.3905 38.7432L53.9549 41.4908C54.2097 42.7314 53.4966 43.9666 52.2948 44.3662L49.6331 45.2512C48.4627 45.6404 47.5836 46.6167 47.3189 47.8213L46.717 50.561C46.4452 51.798 45.2913 52.6363 44.0309 52.5126L41.2393 52.2385C40.0119 52.1179 38.8116 52.6523 38.0799 53.6451L36.4156 55.9031C35.6642 56.9226 34.2691 57.2191 33.168 56.5934L30.7292 55.2076C29.6569 54.5982 28.3431 54.5982 27.2708 55.2076L24.832 56.5934C23.7309 57.2191 22.3358 56.9226 21.5844 55.9031L19.9201 53.6451C19.1884 52.6523 17.9881 52.1179 16.7607 52.2385L13.9691 52.5126C12.7087 52.6363 11.5548 51.798 11.283 50.561L10.6811 47.8213C10.4164 46.6167 9.53725 45.6404 8.36693 45.2512L5.70516 44.3662C4.50338 43.9666 3.79026 42.7314 4.04509 41.4908L4.6095 38.7432C4.85766 37.535 4.45165 36.2855 3.54079 35.454L1.46912 33.5628C0.53377 32.709 0.384688 31.2905 1.12207 30.2609L2.75527 27.9803C3.47335 26.9776 3.61069 25.6709 3.11677 24.5408L1.99342 21.9705C1.48623 20.81 1.92696 19.4536 3.0194 18.8129L5.43899 17.3938C6.50284 16.7698 7.15976 15.632 7.1682 14.3987L7.18741 11.5937C7.19608 10.3273 8.15041 9.26735 9.40901 9.12635L12.1966 8.81405C13.4223 8.67674 14.4852 7.90448 14.9945 6.78125L16.153 4.22657C16.676 3.07314 17.9789 2.49304 19.1861 2.87615L21.8597 3.72467C23.0353 4.09775 24.3204 3.82459 25.2426 3.00563L27.3399 1.14299C28.2869 0.302018 29.7131 0.302018 30.6601 1.14299Z" fill="white" stroke="white"/>
</svg>
