<svg width="2590" height="16" viewBox="0 0 2590 16" fill="none" xmlns="http://www.w3.org/2000/svg">
<g clip-path="url(#clip0_80:717)">
<rect width="2590" height="16" fill="#091211"/>
<path d="M-93.3912 204.921L-71.8245 193.961L-62.9857 192.193L-58.3895 196.79L-48.1364 186.537L-45.6615 179.819H-52.7326L-51.3184 171.334L-42.8331 164.97L-36.4692 154.363L-48.8435 166.738L-65.8141 173.809L-63.6928 164.616L-45.308 139.867V134.211L-7.12422 96.0269L-2.88158 88.9558L22.5743 78.3492L51.2121 70.9246L60.0509 62.0857L69.9504 64.2071L76.3144 57.8431L85.5068 48.6507L92.9314 46.8829L99.6489 40.1654L105.306 42.2868L113.437 36.2763L131.469 32.3873L139.954 23.902L126.519 23.1949L115.912 22.4878L104.245 29.9124L86.5674 35.5692L70.304 44.7616L62.8793 41.5796L52.9799 51.4791L38.8377 58.5502L27.1705 63.8535L42.3733 55.0147L51.5656 45.8223L65.3542 35.5692L77.7286 31.6802L107.781 17.8916L126.873 7.28497L155.51 -1.55387L165.763 -4.73585L177.784 0.213901L191.219 1.62811L194.755 14.356L210.311 8.69918L215.968 14.356L215.614 21.0736L209.958 26.7304L218.089 29.9124L227.282 25.6697L232.231 15.7702L243.899 4.10299L236.828 1.98167L229.049 9.75984L226.221 16.1238L223.393 13.2954L217.382 7.28497L226.575 1.62811L236.828 -2.96808L232.231 -7.56427L241.07 -12.8676L260.516 -12.514L270.415 -13.9282L250.97 -5.79651L256.627 2.68877L265.112 -2.26097L283.85 -7.56427L292.689 -12.1605L309.306 -13.9282L329.812 -16.0496L366.582 -12.514L384.613 -11.4534L395.927 -10.0391L434.464 3.04233L442.949 11.5276L454.616 23.1949L459.213 32.0337L458.859 45.8223L472.294 40.8725L469.466 35.2157L462.041 25.6697L450.727 14.356L453.909 11.1741L530.984 60.6715L546.187 75.8743L555.733 85.4203L534.873 70.9246L518.963 67.0355L506.235 63.5L523.559 75.1672L514.013 77.6421L531.338 79.4099L528.863 73.3995L571.643 101.33L590.027 119.715L605.584 135.271L626.443 166.738L635.282 183.355L659.324 222.953L657.203 227.195L663.213 233.206L673.466 243.459" stroke="#0F7BCF" stroke-width="2" stroke-linejoin="bevel"/>
<path d="M724.728 204.921L746.295 193.961L755.133 192.193L759.73 196.79L769.983 186.537L772.458 179.819H765.387L766.801 171.334L775.286 164.97L781.65 154.363L769.276 166.738L752.305 173.809L754.426 164.616L772.811 139.867V134.211L810.995 96.0269L815.238 88.9558L840.693 78.3492L869.331 70.9246L878.17 62.0857L888.07 64.2071L894.434 57.8431L903.626 48.6507L911.051 46.8829L917.768 40.1654L923.425 42.2868L931.557 36.2763L949.588 32.3873L958.073 23.902L944.638 23.1949L934.031 22.4878L922.364 29.9124L904.687 35.5692L888.423 44.7616L880.998 41.5796L871.099 51.4791L856.957 58.5502L845.29 63.8535L860.492 55.0147L869.685 45.8223L883.473 35.5692L895.848 31.6802L925.9 17.8916L944.992 7.28497L973.629 -1.55387L983.883 -4.73585L995.903 0.213901L1009.34 1.62811L1012.87 14.356L1028.43 8.69918L1034.09 14.356L1033.73 21.0736L1028.08 26.7304L1036.21 29.9124L1045.4 25.6697L1050.35 15.7702L1062.02 4.10299L1054.95 1.98167L1047.17 9.75984L1044.34 16.1238L1041.51 13.2954L1035.5 7.28497L1044.69 1.62811L1054.95 -2.96808L1050.35 -7.56427L1059.19 -12.8676L1078.63 -12.514L1088.53 -13.9282L1069.09 -5.79651L1074.75 2.68877L1083.23 -2.26097L1101.97 -7.56427L1110.81 -12.1605L1127.43 -13.9282L1147.93 -16.0496L1184.7 -12.514L1202.73 -11.4534L1214.05 -10.0391L1252.58 3.04233L1261.07 11.5276L1272.74 23.1949L1277.33 32.0337L1276.98 45.8223L1290.41 40.8725L1287.58 35.2157L1280.16 25.6697L1268.85 14.356L1272.03 11.1741L1349.1 60.6715L1364.31 75.8743L1373.85 85.4203L1352.99 70.9246L1337.08 67.0355L1324.35 63.5L1341.68 75.1672L1332.13 77.6421L1349.46 79.4099L1346.98 73.3995L1389.76 101.33L1408.15 119.715L1423.7 135.271L1444.56 166.738L1453.4 183.355L1477.44 222.953L1475.32 227.195L1481.33 233.206L1491.59 243.459" stroke="#0F7BCF" stroke-width="2" stroke-linejoin="bevel"/>
<path d="M439.001 112.338L462.669 107.334L471.665 107.914L474.915 113.543L487.472 106.293L491.601 100.445L484.771 98.6147L488.333 90.7846L498.176 86.8336L507.069 78.2356L491.913 86.9856L473.691 89.4234L478.119 81.0933L502.283 61.9461L503.747 56.482L550.512 29.482L556.44 23.75L583.774 20.0933L613.358 20.3336L624.183 14.0836L633.196 18.6949L640.99 14.1949L652.249 7.69485L659.878 7.90896L668.105 3.15896L673.02 6.6721L682.43 2.97113L700.854 3.88139L711.246 -2.11861L698.452 -6.27887L688.39 -9.70707L675.198 -5.55515L656.659 -4.66636L638.571 0.00351109L632.222 -4.99168L620.098 2.00832L604.608 5.17819L591.965 7.28108L608.938 2.67819L620.196 -3.82181L636.169 -10.1567L649.128 -10.7106L681.725 -16.2513L702.911 -21.5551L732.861 -22.6808L743.588 -23.1007L753.918 -15.2084L766.53 -10.3651L766.65 2.8442L783.141 1.40638L787.141 8.33458L785.061 14.7317L778.132 18.7317L785.163 23.9099L795.141 22.191L802.484 13.9099L816.773 5.6599L810.492 1.78074L800.966 7.28074L796.587 12.6958L794.587 9.2317L790.337 1.87048L800.68 -1.21445L811.773 -3.00035L808.523 -8.62952L818.434 -11.4645L837.125 -6.0901L847.053 -4.89394L826.166 -2.07215L829.434 7.58811L838.911 5.00317L858.383 4.73041L868.111 2.57849L884.619 5.17175L904.975 8.43008L939.577 21.3618L956.719 27.0532L967.281 31.3474L1001.12 53.9573L1007.12 64.3496L1015.37 78.639L1017.52 88.3663L1013.61 101.594L1027.87 100.29L1026.6 94.0935L1021.9 82.9512L1013.9 69.0948L1017.8 66.8448L1079.44 134.604L1090.19 153.224L1096.94 164.915L1080.54 145.514L1066.18 137.64L1054.8 130.931L1068.51 146.684L1058.65 146.604L1074.93 152.795L1074.09 146.349L1108.19 184.401L1121.19 206.917L1132.19 225.97L1144.19 261.763L1148.43 280.101L1161.4 324.572L1158.25 328.121L1162.5 335.483L1169.75 348.04" stroke="#0F7BCF" stroke-width="2" stroke-linejoin="bevel"/>
<path d="M1227 112.338L1250.67 107.334L1259.66 107.914L1262.91 113.543L1275.47 106.293L1279.6 100.445L1272.77 98.6147L1276.33 90.7846L1286.18 86.8336L1295.07 78.2356L1279.91 86.9856L1261.69 89.4234L1266.12 81.0933L1290.28 61.9461L1291.75 56.482L1338.51 29.482L1344.44 23.75L1371.77 20.0933L1401.36 20.3336L1412.18 14.0836L1421.2 18.6949L1428.99 14.1949L1440.25 7.69485L1447.88 7.90896L1456.11 3.15896L1461.02 6.6721L1470.43 2.97113L1488.85 3.88139L1499.25 -2.11861L1486.45 -6.27887L1476.39 -9.70707L1463.2 -5.55515L1444.66 -4.66636L1426.57 0.00351109L1420.22 -4.99168L1408.1 2.00832L1392.61 5.17819L1379.97 7.28108L1396.94 2.67819L1408.2 -3.82181L1424.17 -10.1567L1437.13 -10.7106L1469.72 -16.2513L1490.91 -21.5551L1520.86 -22.6808L1531.59 -23.1007L1541.92 -15.2084L1554.53 -10.3651L1554.65 2.8442L1571.14 1.40638L1575.14 8.33458L1573.06 14.7317L1566.13 18.7317L1573.16 23.9099L1583.14 22.191L1590.48 13.9099L1604.77 5.6599L1598.49 1.78074L1588.97 7.28074L1584.59 12.6958L1582.59 9.2317L1578.34 1.87048L1588.68 -1.21445L1599.77 -3.00035L1596.52 -8.62952L1606.43 -11.4645L1625.13 -6.0901L1635.05 -4.89394L1614.17 -2.07215L1617.43 7.58811L1626.91 5.00317L1646.38 4.73041L1656.11 2.57849L1672.62 5.17175L1692.98 8.43008L1727.58 21.3618L1744.72 27.0532L1755.28 31.3474L1789.12 53.9573L1795.12 64.3496L1803.37 78.639L1805.52 88.3663L1801.61 101.594L1815.87 100.29L1814.6 94.0935L1809.9 82.9512L1801.9 69.0948L1805.8 66.8448L1867.44 134.604L1878.19 153.224L1884.94 164.915L1868.54 145.514L1854.18 137.64L1842.8 130.931L1856.51 146.684L1846.65 146.604L1862.93 152.795L1862.09 146.349L1896.19 184.401L1909.19 206.917L1920.19 225.97L1932.19 261.763L1936.43 280.101L1949.4 324.572L1946.25 328.121L1950.5 335.483L1957.75 348.04" stroke="#0F7BCF" stroke-width="2" stroke-linejoin="bevel"/>
<path d="M2004.67 85.9096L2019.57 82.7585L2025.23 83.1238L2027.28 86.6679L2035.18 82.1033L2037.78 78.4213L2033.48 77.2691L2035.73 72.3392L2041.92 69.8516L2047.52 64.4382L2037.98 69.9473L2026.51 71.4821L2029.3 66.2375L2044.51 54.1823L2045.43 50.7421L2074.88 33.7428L2078.61 30.1339L2095.82 27.8316L2114.44 27.9829L2121.26 24.0479L2126.93 26.9511L2131.84 24.1179L2138.93 20.0255L2143.73 20.1603L2148.91 17.1697L2152.01 19.3816L2157.93 17.0514L2169.53 17.6245L2176.07 13.8469L2168.02 11.2276L2161.68 9.06917L2153.38 11.6832L2141.71 12.2428L2130.32 15.183L2126.32 12.038L2118.69 16.4452L2108.93 18.441L2100.97 19.765L2111.66 16.867L2118.75 12.7746L2128.8 8.78605L2136.96 8.43735L2157.49 4.94889L2170.83 1.60957L2189.68 0.900858L2196.44 0.636504L2202.94 5.60553L2210.88 8.65488L2210.96 16.9715L2221.34 16.0662L2223.86 20.4283L2222.55 24.4559L2218.19 26.9743L2222.61 30.2346L2228.89 29.1523L2233.52 23.9385L2242.51 18.7443L2238.56 16.3019L2232.56 19.7648L2229.8 23.1741L2228.55 20.9931L2225.87 16.3584L2232.38 14.4162L2239.37 13.2918L2237.32 9.7476L2243.56 7.96271L2255.33 11.3464L2261.58 12.0995L2248.43 13.8762L2250.49 19.9583L2256.45 18.3308L2268.71 18.1591L2274.84 16.8042L2285.23 18.4369L2298.05 20.4884L2319.83 28.6303L2330.62 32.2136L2337.27 34.9172L2358.58 49.1526L2362.36 55.6956L2367.55 64.6923L2368.91 70.8166L2366.44 79.1445L2375.42 78.3236L2374.62 74.4225L2371.66 67.4072L2366.63 58.6832L2369.08 57.2666L2407.89 99.9281L2414.66 111.651L2418.91 119.012L2408.58 106.797L2399.54 101.84L2392.38 97.6153L2401.01 107.534L2394.8 107.483L2405.05 111.381L2404.52 107.323L2425.99 131.28L2434.17 145.457L2441.1 157.452L2448.66 179.988L2451.32 191.534L2459.49 219.533L2457.51 221.767L2460.19 226.402L2464.75 234.308" stroke="#0F7BCF" stroke-width="2" stroke-linejoin="bevel"/>
<path d="M1597.13 421.761L1611.33 402.176L1618.39 396.574L1624.58 398.571L1629.03 384.772L1628.17 377.664L1621.88 380.887L1619.27 372.69L1623.92 363.158L1624.75 350.816L1619.38 367.471L1607.5 381.499L1605.19 372.35L1610.28 341.942L1607.7 336.907L1624.28 285.517L1624.84 277.289L1642.66 256.246L1664.77 236.586L1668.61 224.69L1678.39 222.066L1681.15 213.501L1685.14 201.129L1690.95 196.172L1693.86 187.131L1699.87 186.441L1704.36 177.385L1718.64 165.705L1722.33 154.285L1710.05 159.779L1700.28 163.984L1693.28 175.91L1680.12 189.002L1669.84 204.597L1661.78 205.148L1657.48 218.472L1648.11 231.211L1640.15 241.249L1649.65 226.453L1653.64 214.081L1661.24 198.67L1670.49 189.569L1690.95 163.599L1703.11 145.457L1724.57 124.537L1732.25 117.032L1745.2 115.959L1757.81 111.094L1766.75 120.812L1778.02 108.687L1785.64 111.144L1788.38 117.284L1785.93 124.897L1794.61 124.023L1800.86 116.058L1800.76 104.99L1805.82 89.2875L1798.56 90.6221L1795.18 101.09L1795.57 108.044L1791.76 106.816L1783.67 104.205L1789.28 94.9804L1796.31 86.2163L1790.12 84.22L1795.57 75.4711L1813.04 66.9232L1821.21 61.1525L1807.61 77.2532L1816.51 82.2277L1821.81 73.9546L1836.07 60.6938L1841.84 52.5743L1855.83 43.4273L1873.11 32.1931L1907.45 18.5817L1923.98 11.3078L1934.7 7.41014L1974.96 1.48988L1986.38 5.1753L2002.09 10.2428L2010.2 16.0154L2016.17 28.4497L2025.88 17.9207L2020.78 14.1747L2009.82 9.06173L1994.6 4.14784L1995.98 -0.134682L2087.14 8.79482L2107.6 15.3979L2120.45 19.544L2095.28 16.1485L2079.34 19.9381L2066.4 22.5921L2087.14 25.0813L2079.77 31.6349L2096 25.3126L2091.05 21.0908L2141.86 26.4541L2166.61 34.4392L2187.54 41.1958L2220.45 59.6967L2235.89 70.4591L2275.34 94.7478L2275.38 99.491L2283.47 102.101L2297.27 106.555" stroke="#0F7BCF" stroke-width="2" stroke-linejoin="bevel"/>
<path d="M2000 543.5L2007.5 520.5L2012.5 513L2019 513L2019 498.5L2016 492L2011 497L2006 490L2007.5 479.5L2004.5 467.5L2004.5 485L1997.5 502L1992.5 494L1988 463.5L1984 459.5L1984 405.5L1982 397.5L1992.5 372L2007.5 346.5L2007.5 334L2016 328.5L2016 319.5L2016 306.5L2020 300L2020 290.5L2025.5 288L2027 278L2037 262.5L2037 250.5L2027 259.5L2019 266.5L2016 280L2007.5 296.5L2002.5 314.5L1995 317.5L1995 331.5L1990 346.5L1985.5 358.5L1990 341.5L1990 328.5L1992.5 311.5L1998.5 300L2010 269L2016 248L2030 221.5L2035 212L2047 207L2057.5 198.5L2069 205L2076 190L2084 190L2088.5 195L2088.5 203L2096.5 199.5L2100 190L2096.5 179.5L2096.5 163L2090 166.5L2090 177.5L2092.5 184L2088.5 184L2080 184L2082.5 173.5L2086.5 163L2080 163L2082.5 153L2096.5 139.5L2102.5 131.5L2094.5 151L2104.5 153L2107 143.5L2116.5 126.5L2119.5 117L2130 104L2143 88L2171.5 64.5L2185 52.5L2194 45.5L2230.5 27.5L2242.5 27.5L2259 27.5L2268.5 30.5L2278 40.5L2284 27.5L2278 25.5L2266 24L2250 24L2250 19.5L2339.5 1.56268e-05L2361 1.65666e-05L2374.5 1.71567e-05L2349.5 4.50002L2335.5 13L2324 19.5L2344.5 15.5L2339.5 24L2353 13L2347 10.5L2397 1.81402e-05L2423 1.92767e-05L2445 2.02384e-05L2482 7.50002L2500 13L2545 24L2546.5 28.5L2555 28.5L2569.5 28.5" stroke="#0F7BCF" stroke-width="2" stroke-linejoin="bevel"/>
<path d="M22 7L22 21.9521" stroke="#0F7BCF" stroke-width="2"/>
<path d="M68.252 7L68.252 21.9521" stroke="#0F7BCF" stroke-width="2"/>
<path d="M45.125 7L45.125 21.9521" stroke="#0F7BCF" stroke-width="2"/>
<path d="M469 -3L469 11.9521" stroke="#0F7BCF" stroke-width="2"/>
<path d="M1871 20L1871 5.04787" stroke="#0F7BCF" stroke-width="2"/>
<path d="M515 -3L515 11.9521" stroke="#0F7BCF" stroke-width="2"/>
<path d="M1825 20L1825 5.04787" stroke="#0F7BCF" stroke-width="2"/>
<path d="M492 -7L492 7.95213" stroke="#0F7BCF" stroke-width="2"/>
<path d="M1848 24L1848 9.04787" stroke="#0F7BCF" stroke-width="2"/>
<path d="M538 -7L538 7.95213" stroke="#0F7BCF" stroke-width="2"/>
<path d="M1802 24L1802 9.04787" stroke="#0F7BCF" stroke-width="2"/>
<path d="M584 -7L584 7.95213" stroke="#0F7BCF" stroke-width="2"/>
<path d="M1756 24L1756 9.04787" stroke="#0F7BCF" stroke-width="2"/>
<path d="M561 -3L561 11.9521" stroke="#0F7BCF" stroke-width="2"/>
<path d="M1779 20L1779 5.04787" stroke="#0F7BCF" stroke-width="2"/>
<path d="M540.839 13H546.584V11.8707H542.655V11.8068L544.389 9.99148C545.987 8.37642 546.443 7.60511 546.443 6.62926C546.443 5.22727 545.301 4.15341 543.656 4.15341C542.024 4.15341 540.831 5.21023 540.831 6.80398H542.088C542.084 5.86648 542.689 5.25284 543.631 5.25284C544.517 5.25284 545.19 5.7983 545.19 6.66761C545.19 7.43892 544.73 7.9929 543.793 8.9858L540.839 12.0455V13ZM546.988 11.2955H551.126V13H552.383V11.2955H553.538V10.179H552.383V4.27273H550.759L546.988 10.2301V11.2955ZM551.134 10.179H548.369V10.1108L551.066 5.84091H551.134V10.179Z" fill="#0F7BCF"/>
<path d="M1173.15 4.27273H1171.87L1169.69 5.69602V6.95739L1171.78 5.59375H1171.83V13H1173.15V4.27273ZM1174.67 13H1180.42V11.8707H1176.49V11.8068L1178.22 9.99148C1179.82 8.37642 1180.28 7.60511 1180.28 6.62926C1180.28 5.22727 1179.13 4.15341 1177.49 4.15341C1175.86 4.15341 1174.66 5.21023 1174.66 6.80398H1175.92C1175.92 5.86648 1176.52 5.25284 1177.46 5.25284C1178.35 5.25284 1179.02 5.7983 1179.02 6.66761C1179.02 7.43892 1178.56 7.9929 1177.62 8.9858L1174.67 12.0455V13Z" fill="#0F7BCF"/>
</g>
<defs>
<clipPath id="clip0_80:717">
<rect width="2590" height="16" fill="white"/>
</clipPath>
</defs>
</svg>
